<svg xmlns="http://www.w3.org/2000/svg" xmlns:xlink="http://www.w3.org/1999/xlink" fill="none" version="1.1" width="12" height="12" viewBox="0 0 12 12"><g><path d="M0.251051,0.251051C0.585786,-0.0836838,1.1285,-0.0836838,1.46324,0.251051C1.46324,0.251051,6,4.78782,6,4.78782C6,4.78782,10.5368,0.251051,10.5368,0.251051C10.8715,-0.0836838,11.4142,-0.0836838,11.7489,0.251051C12.0837,0.585786,12.0837,1.1285,11.7489,1.46324C11.7489,1.46324,7.21218,6,7.21218,6C7.21218,6,11.7489,10.5368,11.7489,10.5368C12.0837,10.8715,12.0837,11.4142,11.7489,11.7489C11.4142,12.0837,10.8715,12.0837,10.5368,11.7489C10.5368,11.7489,6,7.21218,6,7.21218C6,7.21218,1.46324,11.7489,1.46324,11.7489C1.1285,12.0837,0.585786,12.0837,0.251051,11.7489C-0.0836838,11.4142,-0.0836838,10.8715,0.251051,10.5368C0.251051,10.5368,4.78782,6,4.78782,6C4.78782,6,0.251051,1.46324,0.251051,1.46324C-0.0836838,1.1285,-0.0836838,0.585786,0.251051,0.251051C0.251051,0.251051,0.251051,0.251051,0.251051,0.251051Z" fill-rule="evenodd" fill="#232324" fill-opacity="1"/></g></svg>