<svg xmlns="http://www.w3.org/2000/svg" xmlns:xlink="http://www.w3.org/1999/xlink" fill="none" version="1.1" width="14" height="14" viewBox="0 0 14 14"><g><path d="M2.1,0L11.9,0C13.0598,0,14,0.940205,14,2.1L14,11.9C14,13.0598,13.0598,14,11.9,14L2.1,14C0.940205,14,0,13.0598,0,11.9L0,2.1C0,0.940205,0.940205,0,2.1,0ZM2.8,1.4C2.4134,1.4,2.1,1.7134,2.1,2.1L2.1,11.9C2.1,12.2866,2.4134,12.6,2.8,12.6L4.9,12.6C5.2866,12.6,5.6,12.2866,5.6,11.9L5.6,2.1C5.6,1.7134,5.2866,1.4,4.9,1.4L2.8,1.4Z" fill-rule="evenodd" fill="#232324" fill-opacity="1"/></g></svg>