<svg xmlns="http://www.w3.org/2000/svg" xmlns:xlink="http://www.w3.org/1999/xlink" fill="none" version="1.1" width="32" height="16" viewBox="0 0 32 16"><defs><clipPath id="master_svg0_16_09742"><rect x="0" y="0" width="32" height="16" rx="3"/></clipPath></defs><g clip-path="url(#master_svg0_16_09742)"><g><path d="M10.92,5.0600000000000005L10.92,11.86L8.82,11.86L8.82,7.06L8.120000000000001,7.06L8.120000000000001,11.86L6.55,11.86L6.55,12.56L15.46,12.56L15.46,11.86L11.65,11.86L11.65,8.66L14.53,8.66L14.53,7.97L11.65,7.97L11.65,5.0600000000000005L15.04,5.0600000000000005L15.04,4.35L7.14,4.35L7.14,5.0600000000000005L10.92,5.0600000000000005ZM20.630000000000003,8.96L20.630000000000003,9.76L17.5,9.76L17.5,12.54L18.21,12.54L18.21,10.42L20.630000000000003,10.42L20.630000000000003,13.02L21.369999999999997,13.02L21.369999999999997,10.42L23.84,10.42L23.84,11.42C23.84,11.68,23.69,11.82,23.41,11.82L22.65,11.79L22.84,12.48L23.64,12.48C24.24,12.48,24.55,12.18,24.55,11.58L24.55,9.76L21.369999999999997,9.76L21.369999999999997,8.96L23.59,8.96L23.59,6.76L18.43,6.76L18.43,8.96L20.630000000000003,8.96ZM20.630000000000003,3.7800000000000002L20.630000000000003,5.3100000000000005L19.18,5.3100000000000005C18.97,4.8,18.73,4.36,18.47,3.99L17.79,4.24C18.05,4.57,18.28,4.93,18.47,5.3100000000000005L16.84,5.3100000000000005L16.84,7.34L17.58,7.34L17.58,5.99L24.42,5.99L24.42,7.33L25.16,7.33L25.16,5.3100000000000005L23.4,5.3100000000000005C23.64,4.99,23.88,4.61,24.11,4.17L23.44,3.92C23.22,4.41,22.95,4.87,22.64,5.3100000000000005L21.369999999999997,5.3100000000000005L21.369999999999997,3.7800000000000002L20.630000000000003,3.7800000000000002ZM22.9,8.35L19.130000000000003,8.35L19.130000000000003,7.37L22.9,7.37L22.9,8.35Z" fill="#22C55E" fill-opacity="1"/></g><rect x="0.5" y="0.5" width="31" height="15" rx="2.5" fill-opacity="0" stroke-opacity="1" stroke="#22C55E" fill="none" stroke-width="1"/></g></svg>