<svg xmlns="http://www.w3.org/2000/svg" xmlns:xlink="http://www.w3.org/1999/xlink" fill="none" version="1.1" width="32" height="16" viewBox="0 0 32 16"><defs><clipPath id="master_svg0_16_09870"><rect x="0" y="0" width="32" height="16" rx="3"/></clipPath></defs><g clip-path="url(#master_svg0_16_09870)"><g><path d="M14.29,9.309999999999999L7.77,9.309999999999999L7.77,12.99L8.5,12.99L8.5,12.46L13.559999999999999,12.46L13.559999999999999,12.99L14.29,12.99L14.29,9.309999999999999ZM8.5,11.78L8.5,10L13.559999999999999,10L13.559999999999999,11.78L8.5,11.78ZM8.370000000000001,5.93L10.76,5.93L10.76,7.55L6.48,7.55L6.48,8.26L15.52,8.26L15.52,7.55L11.49,7.55L11.49,5.93L14.76,5.93L14.76,5.24L11.49,5.24L11.49,3.820001L10.76,3.820001L10.76,5.24L8.8,5.24C9,4.87,9.16,4.48,9.29,4.0600000000000005L8.57,3.98C8.25,5.029999999999999,7.63,5.92,6.73,6.640000000000001L7.16,7.21C7.63,6.82,8.03,6.390000000000001,8.370000000000001,5.93ZM16.73,4.25L16.73,4.78L17.939999999999998,4.78L17.939999999999998,5.140000000000001L17.439999999999998,5.0600000000000005C17.27,5.7,16.95,6.21,16.48,6.59L16.869999999999997,7.07C17.23,6.77,17.52,6.4,17.740000000000002,5.96L20.45,5.96C20.439999999999998,6.62,20.41,7.05,20.36,7.23C20.3,7.41,20.16,7.5,19.939999999999998,7.52L19.689999999999998,7.52L19.689999999999998,6.35L17.560000000000002,6.35L17.560000000000002,7.72L19.58,7.72L19.66,7.99L20.07,7.99C20.23,7.98,20.369999999999997,7.95,20.5,7.91C20.58,8.030000000000001,20.67,8.18,20.75,8.35L16.689999999999998,8.35L16.689999999999998,8.879999999999999L25.32,8.879999999999999L25.32,8.35L21.43,8.35C21.33,8.11,21.240000000000002,7.9,21.14,7.71L20.75,7.77C20.8,7.73,20.85,7.67,20.89,7.6C21.03,7.34,21.11,6.63,21.11,5.470000000000001L17.939999999999998,5.470000000000001C17.97,5.390000000000001,18,5.3100000000000005,18.02,5.23L18.54,5.23L18.54,4.78L19.630000000000003,4.78L19.630000000000003,5.23L20.23,5.23L20.23,4.78L21.43,4.78L21.43,4.25L20.23,4.25L20.23,3.8L19.630000000000003,3.8L19.630000000000003,4.25L18.54,4.25L18.54,3.8L17.939999999999998,3.8L17.939999999999998,4.25L16.73,4.25ZM19.14,7.32L18.1,7.32L18.1,6.74L19.14,6.74L19.14,7.32ZM22.14,5.8100000000000005C22.3,6.15,22.53,6.470000000000001,22.85,6.77C22.44,7.05,21.93,7.25,21.310000000000002,7.39L21.58,7.97C22.27,7.81,22.86,7.54,23.35,7.18C23.81,7.5,24.4,7.78,25.1,8.01L25.43,7.43C24.81,7.24,24.27,7.01,23.82,6.74C24.22,6.29,24.5,5.720000000000001,24.65,5.02L25.21,5.02L25.21,4.42L22.83,4.42C22.89,4.24,22.94,4.0600000000000005,22.99,3.860001L22.33,3.74C22.12,4.68,21.72,5.43,21.130000000000003,5.99L21.53,6.49C21.75,6.29,21.96,6.0600000000000005,22.14,5.8100000000000005ZM22.59,5.02L24.02,5.02C23.9,5.54,23.66,6,23.31,6.38C22.91,6.04,22.64,5.65,22.5,5.21C22.52,5.15,22.55,5.09,22.59,5.02ZM17.91,9.35L17.91,9.79L24.18,9.79L24.18,9.35L17.91,9.35ZM17.91,10.25L17.91,10.690000000000001L24.18,10.690000000000001L24.18,10.25L17.91,10.25ZM24.5,11.18L17.61,11.18L17.61,13.08L18.310000000000002,13.08L18.310000000000002,12.78L23.8,12.78L23.8,13.08L24.5,13.08L24.5,11.18ZM18.310000000000002,12.29L18.310000000000002,11.66L23.8,11.66L23.8,12.29L18.310000000000002,12.29Z" fill="#EB2828" fill-opacity="1"/></g><rect x="0.5" y="0.5" width="31" height="15" rx="2.5" fill-opacity="0" stroke-opacity="1" stroke="#EB2828" fill="none" stroke-width="1"/></g></svg>