<svg xmlns="http://www.w3.org/2000/svg" xmlns:xlink="http://www.w3.org/1999/xlink" fill="none" version="1.1" width="16" height="9.053388595581055" viewBox="0 0 16 9.053388595581055"><g><path d="M2.63512,4.8884L0,4.8884L0,4.05815L2.89387,4.05815C3.13299,4.05847,3.35149,4.1651,3.45875,4.33382L4.49592,5.97349L6.41212,0.42765C6.50272,0.165878,6.81089,-0.0114525,7.15429,0.000576446C7.49769,0.0126058,7.78475,0.210787,7.84564,0.477865L9.43536,7.4924L11.553,2.71396C11.6507,2.49342,11.9063,2.34057,12.2017,2.32607C12.497,2.31157,12.7747,2.43823,12.9062,2.64752L13.7997,4.05986L16,4.05986L16,4.89062L13.5412,4.89062C13.3021,4.89034,13.0835,4.7837,12.9763,4.61495L12.2985,3.54644L10.0312,8.66306C9.92138,8.91282,9.61174,9.07252,9.27791,9.05154C8.94408,9.03057,8.67032,8.83423,8.61194,8.5739L7.05921,1.71377L5.2949,6.82065C5.21389,7.05287,4.96013,7.22175,4.65651,7.24549C4.35289,7.26922,4.0621,7.14291,3.92498,6.92774L2.63512,4.8884Z" fill="#22A2CC" fill-opacity="1"/></g></svg>