<svg xmlns="http://www.w3.org/2000/svg" xmlns:xlink="http://www.w3.org/1999/xlink" fill="none" version="1.1" width="26" height="26" viewBox="0 0 26 26"><g><rect x="0.5" y="0.5" width="25" height="25" rx="11.5" fill-opacity="0" stroke-opacity="1" stroke="#F2F3F5" fill="none" stroke-width="1"/><g><path d="M10.60002,7.19999C10.93138,7.19999,11.20002,6.931366,11.20002,6.599997C11.20002,6.268628,10.93138,6.000000000016081,10.60002,6.000000000016081C10.60002,6.000000000016081,10.60002,7.19999,10.60002,7.19999C10.60002,7.19999,10.60002,7.19999,10.60002,7.19999ZM6.600028,6.599997C6.600028,6.599997,6.600028,6.000000000016081,6.600028,6.000000000016081C6.2686589999999995,6.000000000016081,6.0000304,6.268625,6.000028,6.5999929999999996C6.000028,6.5999929999999996,6.600028,6.599997,6.600028,6.599997C6.600028,6.599997,6.600028,6.599997,6.600028,6.599997ZM6.000000000016081,10.59998C5.99999760002,10.93136,6.268625,11.19999,6.599996,11.19999C6.931366,11.19999,7.2,10.93136,7.2,10.59999C7.2,10.59999,6.000000000016081,10.59998,6.000000000016081,10.59998C6.000000000016081,10.59998,6.000000000016081,10.59998,6.000000000016081,10.59998ZM18.8,10.59999C18.8,10.93136,19.0686,11.19999,19.4,11.19999C19.7314,11.19999,20,10.93136,20,10.59999C20,10.59999,18.8,10.59999,18.8,10.59999C18.8,10.59999,18.8,10.59999,18.8,10.59999ZM19.4,6.6000250000000005C19.4,6.6000250000000005,20,6.6000250000000005,20,6.6000250000000005C20,6.268658,19.7314,6.0000303998,19.4,6.0000279999C19.4,6.0000279999,19.4,6.6000250000000005,19.4,6.6000250000000005C19.4,6.6000250000000005,19.4,6.6000250000000005,19.4,6.6000250000000005ZM15.4,6.000000000016081C15.06864,5.99999760003,14.8,6.268623,14.8,6.599992C14.8,6.931361,15.06864,7.19999,15.4,7.19999C15.4,7.19999,15.4,6.000000000016081,15.4,6.000000000016081C15.4,6.000000000016081,15.4,6.000000000016081,15.4,6.000000000016081ZM15.4,18.8C15.06864,18.8,14.8,19.0686,14.8,19.4C14.8,19.7314,15.06864,20,15.4,20C15.4,20,15.4,18.8,15.4,18.8C15.4,18.8,15.4,18.8,15.4,18.8ZM19.4,19.4C19.4,19.4,19.4,20,19.4,20C19.7314,20,20,19.7314,20,19.4C20,19.4,19.4,19.4,19.4,19.4C19.4,19.4,19.4,19.4,19.4,19.4ZM20,15.39995C20,15.06859,19.7314,14.79995,19.4,14.79995C19.0686,14.79995,18.8,15.06859,18.8,15.39995C18.8,15.39995,20,15.39995,20,15.39995C20,15.39995,20,15.39995,20,15.39995ZM7.2,15.39995C7.2,15.06859,6.931371,14.79995,6.600001,14.79995C6.26863,14.79995,6.000000800016,15.06859,6.000000800016,15.39995C6.000000800016,15.39995,7.2,15.39995,7.2,15.39995C7.2,15.39995,7.2,15.39995,7.2,15.39995ZM6.6,19.399900000000002C6.6,19.399900000000002,6.000000000016081,19.399900000000002,6.000000000016081,19.399900000000002C6.000000000016081,19.731299999999997,6.268626,19.9999,6.599996,19.9999C6.599996,19.9999,6.6,19.399900000000002,6.6,19.399900000000002C6.6,19.399900000000002,6.6,19.399900000000002,6.6,19.399900000000002ZM10.600010000000001,20C10.93138,20,11.20002,19.7314,11.20002,19.4C11.20002,19.0686,10.93139,18.8,10.60002,18.8C10.60002,18.8,10.600010000000001,20,10.600010000000001,20C10.600010000000001,20,10.600010000000001,20,10.600010000000001,20ZM10.60002,6.000000000016081C10.60002,6.000000000016081,6.600028,6.000000000016081,6.600028,6.000000000016081C6.600028,6.000000000016081,6.600028,7.19999,6.600028,7.19999C6.600028,7.19999,10.60002,7.19999,10.60002,7.19999C10.60002,7.19999,10.60002,6.000000000016081,10.60002,6.000000000016081C10.60002,6.000000000016081,10.60002,6.000000000016081,10.60002,6.000000000016081ZM6.000028,6.5999929999999996C6.000028,6.5999929999999996,6.000000000016081,10.59998,6.000000000016081,10.59998C6.000000000016081,10.59998,7.2,10.59999,7.2,10.59999C7.2,10.59999,7.20003,6.600001,7.20003,6.600001C7.20003,6.600001,6.000028,6.5999929999999996,6.000028,6.5999929999999996C6.000028,6.5999929999999996,6.000028,6.5999929999999996,6.000028,6.5999929999999996ZM20,10.59999C20,10.59999,20,6.6000250000000005,20,6.6000250000000005C20,6.6000250000000005,18.8,6.6000250000000005,18.8,6.6000250000000005C18.8,6.6000250000000005,18.8,10.59999,18.8,10.59999C18.8,10.59999,20,10.59999,20,10.59999C20,10.59999,20,10.59999,20,10.59999ZM19.4,6.0000279999C19.4,6.0000279999,15.4,6.000000000016081,15.4,6.000000000016081C15.4,6.000000000016081,15.4,7.19999,15.4,7.19999C15.4,7.19999,19.4,7.20002,19.4,7.20002C19.4,7.20002,19.4,6.0000279999,19.4,6.0000279999C19.4,6.0000279999,19.4,6.0000279999,19.4,6.0000279999ZM15.4,20C15.4,20,19.4,20,19.4,20C19.4,20,19.4,18.8,19.4,18.8C19.4,18.8,15.4,18.8,15.4,18.8C15.4,18.8,15.4,20,15.4,20C15.4,20,15.4,20,15.4,20ZM20,19.4C20,19.4,20,15.39995,20,15.39995C20,15.39995,18.8,15.39995,18.8,15.39995C18.8,15.39995,18.8,19.4,18.8,19.4C18.8,19.4,20,19.4,20,19.4C20,19.4,20,19.4,20,19.4ZM6.000000800016,15.39995C6.000000800016,15.39995,6.000000000016081,19.399900000000002,6.000000000016081,19.399900000000002C6.000000000016081,19.399900000000002,7.2,19.399900000000002,7.2,19.399900000000002C7.2,19.399900000000002,7.2,15.39995,7.2,15.39995C7.2,15.39995,6.000000800016,15.39995,6.000000800016,15.39995C6.000000800016,15.39995,6.000000800016,15.39995,6.000000800016,15.39995ZM6.599996,19.9999C6.599996,19.9999,10.600010000000001,20,10.600010000000001,20C10.600010000000001,20,10.60002,18.8,10.60002,18.8C10.60002,18.8,6.600004,18.7999,6.600004,18.7999C6.600004,18.7999,6.599996,19.9999,6.599996,19.9999C6.599996,19.9999,6.599996,19.9999,6.599996,19.9999Z" fill="#333333" fill-opacity="1"/></g></g></svg>