<svg xmlns="http://www.w3.org/2000/svg" xmlns:xlink="http://www.w3.org/1999/xlink" fill="none" version="1.1" width="14" height="14" viewBox="0 0 14 14"><g><path d="M11.375,5.44451C11.375,5.44451,11.375,3.88919,11.375,3.88919C11.375,1.75018,9.40607,0,6.99969,0C4.59373,0,2.62499,1.74982,2.62499,3.88865C2.62499,3.88865,2.62499,5.44451,2.62499,5.44451C2.62499,5.44451,0,5.44451,0,5.44451C0,5.44451,0,14,0,14C0,14,14,14,14,14C14,14,14,5.44451,14,5.44451C14,5.44451,11.375,5.44451,11.375,5.44451C11.375,5.44451,11.375,5.44451,11.375,5.44451ZM4.37512,3.88865C4.37512,2.60221,5.55246,1.55568,6.99969,1.55568C8.44733,1.55568,9.62509,2.60258,9.62509,3.88937C9.62509,3.88937,9.62509,5.44469,9.62509,5.44469C9.62509,5.44469,4.37512,5.44469,4.37512,5.44469C4.37512,5.44469,4.37512,3.88865,4.37512,3.88865C4.37512,3.88865,4.37512,3.88865,4.37512,3.88865ZM12.2501,12.4445C12.2501,12.4445,1.75013,12.4445,1.75013,12.4445C1.75013,12.4445,1.75013,7,1.75013,7C1.75013,7,12.2501,7,12.2501,7C12.2501,7,12.2501,12.4445,12.2501,12.4445C12.2501,12.4445,12.2501,12.4445,12.2501,12.4445Z" fill="#828282" fill-opacity="1"/></g></svg>