<svg xmlns="http://www.w3.org/2000/svg" xmlns:xlink="http://www.w3.org/1999/xlink" fill="none" version="1.1" width="11.666666030883789" height="11.666666030883789" viewBox="0 0 11.666666030883789 11.666666030883789"><g><path d="M5.25,1.16667C2.99484,1.16667,1.16667,2.99484,1.16667,5.25C1.16667,7.50517,2.99484,9.33333,5.25,9.33333C6.35011,9.33333,7.34866,8.89828,8.0829,8.19082C8.09824,8.17087,8.11504,8.15162,8.13336,8.13336C8.15162,8.11504,8.17087,8.09824,8.19082,8.0829C8.89828,7.34866,9.33333,6.35011,9.33333,5.25C9.33333,2.99484,7.50517,1.16667,5.25,1.16667C5.25,1.16667,5.25,1.16667,5.25,1.16667ZM9.35194,8.52699C10.0704,7.62883,10.5,6.48958,10.5,5.25C10.5,2.35051,8.14952,0,5.25,0C2.35051,0,0,2.35051,0,5.25C0,8.14952,2.35051,10.5,5.25,10.5C6.48958,10.5,7.62883,10.0704,8.52699,9.35194C8.52699,9.35194,10.6709,11.4958,10.6709,11.4958C10.8986,11.7236,11.268,11.7236,11.4958,11.4958C11.7236,11.268,11.7236,10.8986,11.4958,10.6709C11.4958,10.6709,9.35194,8.52699,9.35194,8.52699C9.35194,8.52699,9.35194,8.52699,9.35194,8.52699Z" fill-rule="evenodd" fill="#22A2CC" fill-opacity="1"/></g></svg>