<svg xmlns="http://www.w3.org/2000/svg" xmlns:xlink="http://www.w3.org/1999/xlink" fill="none" version="1.1" width="26" height="26" viewBox="0 0 26 26"><defs><clipPath id="master_svg0_16_24235/16_24229"><rect x="0" y="0" width="26" height="26" rx="13"/></clipPath></defs><g clip-path="url(#master_svg0_16_24235/16_24229)"><g><path d="M18.3918,15.46242C17.3084,15.71477,16.1786,15.68686,15.10892,15.38148C14.03933,15.07611,13.06522,14.50332,12.27863,13.71716C11.49204,12.931000000000001,10.91892,11.957429999999999,10.61338,10.888390000000001C10.307839999999999,9.81935,10.279969999999999,8.69012,10.532399999999999,7.60731C9.30678,8.17282,8.311209999999999,9.139759999999999,7.71056,10.34801C7.1099,11.55627,6.940196,12.93333,7.22956,14.25114C7.51892,15.569,8.24998,16.7484,9.30166,17.5943C10.353349999999999,18.4401,11.66256,18.9015,13.01247,18.9021C15.39671,18.9021,17.453699999999998,17.4926,18.3918,15.46242C18.3918,15.46242,18.3918,15.46242,18.3918,15.46242ZM18.8087,14.20089C17.7218,14.60531,16.5342,14.65292,15.41841,14.33682C14.30257,14.02072,13.31663,13.35736,12.60372,12.44308C11.89081,11.5288,11.48806,10.411190000000001,11.45396,9.252559999999999C11.41986,8.09393,11.756170000000001,6.95459,12.414069999999999,6C10.6644,6.150489,9.03482,6.951352,7.84727,8.24437C6.659722,9.5374,6.000558746,11.228539999999999,6.00000415522,12.98372C5.99803579,14.792,6.695459,16.531100000000002,7.9465,17.8375C9.19754,19.1438,10.90536,19.9163,12.71301,19.9936C14.52065,20.0708,16.2882,19.4467,17.6463,18.2518C19.0043,17.0569,19.8476,15.38367,20,13.58179C19.630000000000003,13.836549999999999,19.229799999999997,14.0445,18.8087,14.20089C18.8087,14.20089,18.8087,14.20089,18.8087,14.20089Z" fill="#4F4F4F" fill-opacity="1"/></g><rect x="0.5" y="0.5" width="25" height="25" rx="12.5" fill-opacity="0" stroke-opacity="1" stroke="#F2F3F5" fill="none" stroke-width="1"/></g></svg>