<svg xmlns="http://www.w3.org/2000/svg" xmlns:xlink="http://www.w3.org/1999/xlink" fill="none" version="1.1" width="12.703703880310059" height="13.176470756530762" viewBox="0 0 12.703703880310059 13.176470756530762"><g><path d="M1.90556,1.31765C1.55476,1.31765,1.27037,1.61262,1.27037,1.97647C1.27037,1.97647,1.27037,11.2,1.27037,11.2C1.27037,11.5639,1.55475,11.8588,1.90556,11.8588C1.90556,11.8588,10.7981,11.8588,10.7981,11.8588C11.149,11.8588,11.4333,11.5639,11.4333,11.2C11.4333,11.2,11.4333,1.97647,11.4333,1.97647C11.4333,1.61261,11.149,1.31765,10.7981,1.31765C10.7981,1.31765,1.90556,1.31765,1.90556,1.31765C1.90556,1.31765,1.90556,1.31765,1.90556,1.31765ZM0,1.97647C0,0.884899,0.853149,0,1.90556,0C1.90556,0,10.7981,0,10.7981,0C11.8506,0,12.7037,0.884899,12.7037,1.97647C12.7037,1.97647,12.7037,11.2,12.7037,11.2C12.7037,12.2916,11.8506,13.1765,10.7981,13.1765C10.7981,13.1765,1.90556,13.1765,1.90556,13.1765C0.853149,13.1765,0,12.2916,0,11.2C0,11.2,0,1.97647,0,1.97647C0,1.97647,0,1.97647,0,1.97647ZM6.98704,7.24706Q8.89259,7.24706,8.89259,7.24706C9.24341,7.24706,9.52778,6.9521,9.52778,6.58824C9.52778,6.22437,9.24341,5.92941,8.89259,5.92941Q8.89259,5.92941,6.98704,5.92941L5.71667,5.92941Q3.81111,5.92941,3.81111,5.92941C3.46031,5.92941,3.17593,6.22437,3.17593,6.58824C3.17593,6.9521,3.46031,7.24706,3.81111,7.24706Q3.81111,7.24706,5.71667,7.24706L6.98704,7.24706Z" fill-rule="evenodd" fill="#E0E0E0" fill-opacity="1"/></g></svg>