<svg xmlns="http://www.w3.org/2000/svg" xmlns:xlink="http://www.w3.org/1999/xlink" fill="none" version="1.1" width="14" height="14" viewBox="0 0 14 14"><g><path d="M2.1,1.4C1.7134,1.4,1.4,1.7134,1.4,2.1C1.4,2.1,1.4,11.9,1.4,11.9C1.4,12.2866,1.7134,12.6,2.1,12.6C2.1,12.6,11.9,12.6,11.9,12.6C12.2866,12.6,12.6,12.2866,12.6,11.9C12.6,11.9,12.6,2.1,12.6,2.1C12.6,1.7134,12.2866,1.4,11.9,1.4C11.9,1.4,2.1,1.4,2.1,1.4C2.1,1.4,2.1,1.4,2.1,1.4ZM0,2.1C0,0.940205,0.940205,0,2.1,0C2.1,0,11.9,0,11.9,0C13.0598,0,14,0.940205,14,2.1C14,2.1,14,11.9,14,11.9C14,13.0598,13.0598,14,11.9,14C11.9,14,2.1,14,2.1,14C0.940205,14,0,13.0598,0,11.9C0,11.9,0,2.1,0,2.1C0,2.1,0,2.1,0,2.1ZM7,3.5C7.38661,3.5,7.7,3.8134,7.7,4.2C7.7,4.2,7.7,6.3,7.7,6.3C7.7,6.3,9.8,6.3,9.8,6.3C10.1866,6.3,10.5,6.6134,10.5,7C10.5,7.38661,10.1866,7.7,9.8,7.7C9.8,7.7,7.7,7.7,7.7,7.7C7.7,7.7,7.7,9.8,7.7,9.8C7.7,10.1866,7.38661,10.5,7,10.5C6.6134,10.5,6.3,10.1866,6.3,9.8C6.3,9.8,6.3,7.7,6.3,7.7C6.3,7.7,4.2,7.7,4.2,7.7C3.8134,7.7,3.5,7.38661,3.5,7C3.5,6.6134,3.8134,6.3,4.2,6.3C4.2,6.3,6.3,6.3,6.3,6.3C6.3,6.3,6.3,4.2,6.3,4.2C6.3,3.8134,6.6134,3.5,7,3.5C7,3.5,7,3.5,7,3.5Z" fill-rule="evenodd" fill="#E0E0E0" fill-opacity="1"/></g></svg>