<svg xmlns="http://www.w3.org/2000/svg" xmlns:xlink="http://www.w3.org/1999/xlink" fill="none" version="1.1" width="10" height="10" viewBox="0 0 10 10"><g><path d="M4.64644,0.146446C4.84171,-0.0488155,5.1583,-0.0488155,5.35355,0.146446C5.35355,0.146446,7.85355,2.64645,7.85355,2.64645C8.0488,2.84171,8.0488,3.15829,7.85355,3.35355C7.6583,3.54882,7.3417,3.54882,7.14645,3.35355C7.14645,3.35355,5.5,1.70711,5.5,1.70711C5.5,1.70711,5.5,6.5,5.5,6.5C5.5,6.77615,5.27615,7,5,7C4.72386,7,4.5,6.77615,4.5,6.5C4.5,6.5,4.5,1.70711,4.5,1.70711C4.5,1.70711,2.85355,3.35355,2.85355,3.35355C2.65829,3.54882,2.34171,3.54882,2.14645,3.35355C1.95118,3.15829,1.95118,2.84171,2.14645,2.64645C2.14645,2.64645,4.64644,0.146446,4.64644,0.146446C4.64644,0.146446,4.64644,0.146446,4.64644,0.146446ZM0.5,6C0.77614,6,1,6.22385,1,6.5C1,6.5,1,8.5,1,8.5C1,8.6326,1.05268,8.7598,1.14645,8.85355C1.24021,8.9473,1.36739,9,1.5,9C1.5,9,8.5,9,8.5,9C8.6326,9,8.7598,8.9473,8.85355,8.85355C8.9473,8.7598,9,8.6326,9,8.5C9,8.5,9,6.5,9,6.5C9,6.22385,9.22385,6,9.5,6C9.77615,6,10,6.22385,10,6.5C10,6.5,10,8.5,10,8.5C10,8.89785,9.84195,9.27935,9.56065,9.56065C9.27935,9.84195,8.89785,10,8.5,10C8.5,10,1.5,10,1.5,10C1.10217,10,0.720645,9.84195,0.43934,9.56065C0.158035,9.27935,0,8.89785,0,8.5C0,8.5,0,6.5,0,6.5C0,6.22385,0.223858,6,0.5,6C0.5,6,0.5,6,0.5,6Z" fill-rule="evenodd" fill="#165DFF" fill-opacity="1"/></g></svg>