<svg xmlns="http://www.w3.org/2000/svg" xmlns:xlink="http://www.w3.org/1999/xlink" fill="none" version="1.1" width="11.454556465148926" height="14" viewBox="0 0 11.454556465148926 14"><g><path d="M10.4591,14C11.2267,14,11.7734,13.2325,11.2444,12.6365C10.2054,11.4657,8.12466,10.6667,5.72727,10.6667C3.32988,10.6667,1.24917,11.4657,0.210127,12.6365C-0.318813,13.2325,0.227846,14,0.995439,14C0.995439,14,10.4591,14,10.4591,14C10.4591,14,10.4591,14,10.4591,14ZM5.72728,10C6.96035,10,8.05766,8.89291,8.66049,7.23924C9.03514,7.07482,9.39159,6.57629,9.55435,5.92549C9.76599,5.07921,9.724,4.32358,9.14716,4.08844C9.09119,1.14073,8.00563,0,5.72728,0C3.44909,0,2.36352,1.14058,2.30742,4.08786C1.72928,4.32236,1.68705,5.07852,1.89886,5.92547C2.06185,6.57721,2.41909,7.07622,2.79433,7.23992C3.39722,8.89321,4.49439,10,5.72728,10C5.72728,10,5.72728,10,5.72728,10Z" fill="#828282" fill-opacity="1"/></g></svg>