<svg xmlns="http://www.w3.org/2000/svg" xmlns:xlink="http://www.w3.org/1999/xlink" fill="none" version="1.1" width="13.99997615814209" height="14.933300018310547" viewBox="0 0 13.99997615814209 14.933300018310547"><g><path d="M6.01515,0C5.44207,0,4.9775,0.472213,4.9775,1.05472C4.9775,1.05472,4.9775,2.20068,4.9775,2.20068C4.9775,2.20068,3.51768,3.05737,3.51768,3.05737C3.51768,3.05737,2.55498,2.49241,2.55498,2.49241C2.05868,2.20116,1.42407,2.374,1.13753,2.87847C1.13753,2.87847,0.152606,4.61248,0.152606,4.61248C-0.133932,5.11694,0.0361136,5.762,0.532411,6.05325C0.532411,6.05325,1.49809,6.61996,1.49809,6.61996C1.49809,6.61996,1.49809,8.32581,1.49809,8.32581C1.49809,8.32581,0.518996,8.90039,0.518996,8.90039C0.0226984,9.19164,-0.147347,9.8367,0.139191,10.3412C0.139191,10.3412,1.12411,12.0752,1.12411,12.0752C1.41065,12.5796,2.04527,12.7525,2.54156,12.4612C2.54156,12.4612,3.52828,11.8822,3.52828,11.8822C3.52828,11.8822,4.9775,12.7327,4.9775,12.7327C4.9775,12.7327,4.9775,13.8786,4.9775,13.8786C4.9775,14.4611,5.44207,14.9333,6.01515,14.9333C6.01515,14.9333,7.985,14.9333,7.985,14.9333C8.55807,14.9333,9.02264,14.4611,9.02264,13.8786C9.02264,13.8786,9.02264,12.7232,9.02264,12.7232C9.02264,12.7232,10.4603,11.8795,10.4603,11.8795C10.4603,11.8795,11.4584,12.4652,11.4584,12.4652C11.9547,12.7565,12.5893,12.5836,12.8759,12.0791C12.8759,12.0791,13.8608,10.3451,13.8608,10.3451C14.1473,9.84067,13.9773,9.19561,13.481,8.90436C13.481,8.90436,12.4859,8.32037,12.4859,8.32037C12.4859,8.32037,12.4859,6.6254,12.4859,6.6254C12.4859,6.6254,13.4676,6.04928,13.4676,6.04928C13.9639,5.75803,14.1339,5.11297,13.8474,4.60851C13.8474,4.60851,12.8625,2.8745,12.8625,2.8745C12.5759,2.37003,11.9413,2.19719,11.445,2.48844C11.445,2.48844,10.4709,3.06009,10.4709,3.06009C10.4709,3.06009,9.02264,2.21017,9.02264,2.21017C9.02264,2.21017,9.02264,1.05472,9.02264,1.05472C9.02264,0.472215,8.55807,0,7.985,0C7.985,0,6.01515,0,6.01515,0C6.01515,0,6.01515,0,6.01515,0ZM6.36103,2.40366C6.36103,2.40366,6.36103,1.40629,6.36103,1.40629C6.36103,1.40629,7.63911,1.40629,7.63911,1.40629C7.63911,1.40629,7.63911,2.41315,7.63911,2.41315C7.63911,2.78996,7.83689,3.13816,8.15794,3.32656C8.15794,3.32656,9.9521,4.37947,9.9521,4.37947C10.2732,4.56788,10.6687,4.56788,10.9897,4.37947C10.9897,4.37947,11.8372,3.88212,11.8372,3.88212C11.8372,3.88212,12.4763,5.00718,12.4763,5.00718C12.4763,5.00718,11.6212,5.509,11.6212,5.509C11.3001,5.69741,11.1024,6.0456,11.1024,6.42242C11.1024,6.42242,11.1024,8.52335,11.1024,8.52335C11.1024,8.90017,11.3001,9.24836,11.6212,9.43676C11.6212,9.43676,12.4897,9.94646,12.4897,9.94646C12.4897,9.94646,11.8507,11.0715,11.8507,11.0715C11.8507,11.0715,10.9792,10.5601,10.9792,10.5601C10.6581,10.3717,10.2626,10.3717,9.94151,10.5601C9.94151,10.5601,8.15794,11.6068,8.15794,11.6068C7.83689,11.7952,7.63911,12.1434,7.63911,12.5202C7.63911,12.5202,7.63911,13.527,7.63911,13.527C7.63911,13.527,6.36103,13.527,6.36103,13.527C6.36103,13.527,6.36103,12.5297,6.36103,12.5297C6.36103,12.1529,6.16326,11.8047,5.84221,11.6163C5.84221,11.6163,4.0471,10.5628,4.0471,10.5628C3.72605,10.3744,3.3305,10.3744,3.00945,10.5628C3.00945,10.5628,2.14934,11.0676,2.14934,11.0676C2.14934,11.0676,1.5103,9.94249,1.5103,9.94249C1.5103,9.94249,2.3628,9.4422,2.3628,9.4422C2.68385,9.25379,2.88162,8.9056,2.88162,8.52879C2.88162,8.52879,2.88162,6.41698,2.88162,6.41698C2.88162,6.04016,2.68385,5.69197,2.3628,5.50357C2.3628,5.50357,1.52372,5.01115,1.52372,5.01115C1.52372,5.01115,2.16276,3.88609,2.16276,3.88609C2.16276,3.88609,2.99886,4.37675,2.99886,4.37675C3.31991,4.56516,3.71546,4.56516,4.0365,4.37675C4.0365,4.37675,5.84221,3.31707,5.84221,3.31707C6.16326,3.12866,6.36103,2.78047,6.36103,2.40366C6.36103,2.40366,6.36103,2.40366,6.36103,2.40366ZM6.99262,9.92768C8.3298,9.92768,9.4138,8.82585,9.4138,7.46667C9.4138,6.10749,8.3298,5.00565,6.99262,5.00565C5.65545,5.00565,4.57145,6.10749,4.57145,7.46667C4.57145,8.82585,5.65545,9.92768,6.99262,9.92768C6.99262,9.92768,6.99262,9.92768,6.99262,9.92768ZM8.03027,7.46667C8.03027,8.04917,7.5657,8.52139,6.99262,8.52139C6.41955,8.52139,5.95498,8.04917,5.95498,7.46667C5.95498,6.88416,6.41955,6.41195,6.99262,6.41195C7.5657,6.41195,8.03027,6.88416,8.03027,7.46667C8.03027,7.46667,8.03027,7.46667,8.03027,7.46667Z" fill-rule="evenodd" fill="#232324" fill-opacity="1"/></g></svg>