<svg xmlns="http://www.w3.org/2000/svg" xmlns:xlink="http://www.w3.org/1999/xlink" fill="none" version="1.1" width="14" height="14" viewBox="0 0 14 14"><g><path d="M12.9062,0C12.9062,0,1.09375,0,1.09375,0C0.48959,0,0,0.559538,0,1.25001C0,1.25001,0,10.1787,0,10.1787C0,10.8692,0.48959,11.4287,1.09375,11.4287C1.09375,11.4287,12.9062,11.4287,12.9062,11.4287C13.5103,11.4287,14,10.8692,14,10.1787C14,10.1787,14,1.25001,14,1.25001C14,0.559538,13.5103,0,12.9062,0C12.9062,0,12.9062,0,12.9062,0ZM12.9808,9.42901C12.9808,9.83933,12.6897,10.172,12.3307,10.172C12.3307,10.172,10.2504,10.172,10.2504,10.172C10.2504,10.172,10.2504,5.86288,10.2504,5.86288C10.2504,5.45256,9.95941,5.1199,9.60025,5.1199C9.24123,5.1199,8.95016,5.45256,8.95016,5.86288C8.95016,5.86288,8.95016,10.172,8.95016,10.172C8.95016,10.172,7.64996,10.172,7.64996,10.172C7.64996,10.172,7.64996,4.37692,7.64996,4.37692C7.64996,3.96661,7.35902,3.63395,6.99986,3.63395C6.64084,3.63395,6.34977,3.96661,6.34977,4.37692C6.34977,4.37692,6.34977,10.172,6.34977,10.172C6.34977,10.172,5.04957,10.172,5.04957,10.172C5.04957,10.172,5.04957,7.05164,5.04957,7.05164C5.04957,6.64132,4.75863,6.30866,4.39947,6.30866C4.04045,6.30866,3.74937,6.64117,3.74937,7.05164C3.74937,7.05164,3.74937,10.172,3.74937,10.172C3.74937,10.172,1.66947,10.172,1.66947,10.172C1.31045,10.172,1.01938,9.83933,1.01938,9.42901C1.01938,9.42901,1.01938,1.99955,1.01938,1.99955C1.01938,1.58924,1.31045,1.25658,1.66947,1.25658C1.66947,1.25658,12.3307,1.25658,12.3307,1.25658C12.6897,1.25658,12.9808,1.58924,12.9808,1.99955C12.9808,1.99955,12.9808,9.42901,12.9808,9.42901C12.9808,9.42901,12.9808,9.42901,12.9808,9.42901ZM9.87506,12.5715C9.87506,12.5715,4.12494,12.5715,4.12494,12.5715C3.77973,12.5715,3.5,12.8914,3.5,13.2858C3.5,13.6803,3.77986,14,4.12494,14C4.12494,14,9.87506,14,9.87506,14C10.2201,14,10.5,13.6803,10.5,13.2858C10.5,12.8914,10.2201,12.5715,9.87506,12.5715C9.87506,12.5715,9.87506,12.5715,9.87506,12.5715Z" fill="#232324" fill-opacity="1"/></g></svg>