<svg xmlns="http://www.w3.org/2000/svg" xmlns:xlink="http://www.w3.org/1999/xlink" fill="none" version="1.1" width="14" height="14" viewBox="0 0 14 14"><g><path d="M0,14C0,14,0,12.8333,0,12.8333C0,12.8333,14,12.8333,14,12.8333C14,12.8333,14,14,14,14C14,14,0,14,0,14C0,14,0,14,0,14ZM11.8462,11.6667C11.8462,11.6667,2.15385,11.6667,2.15385,11.6667C1.58261,11.6667,1.03477,11.4208,0.630847,10.9832C0.226922,10.5457,3.34708e-9,9.95217,2.69016e-16,9.33333C2.69016e-16,9.33333,0,2.33333,0,2.33333C0,1.7145,0.226922,1.121,0.630847,0.683418C1.03477,0.245833,1.58261,6.31439e-16,2.15385,0C2.15385,0,11.8462,4.85723e-17,11.8462,4.85723e-17C12.4174,3.62601e-9,12.9652,0.245833,13.3692,0.683418C13.7731,1.121,14,1.7145,14,2.33333C14,2.33333,14,9.33333,14,9.33333C14,9.95217,13.7731,10.5457,13.3692,10.9832C12.9652,11.4208,12.4174,11.6667,11.8462,11.6667C11.8462,11.6667,11.8462,11.6667,11.8462,11.6667ZM11.8795,3.92933C11.8795,3.92933,11.6254,2.92133,11.6254,2.92133C11.6254,2.92133,10.6788,3.19142,10.6788,3.19142C10.6788,3.19142,8.785,3.73158,8.785,3.73158C8.785,3.73158,9.03861,4.73958,9.03861,4.73958C9.03861,4.73958,10.381,4.35692,10.381,4.35692C10.381,4.35692,8.14315,6.73808,8.14315,6.73808C8.14315,6.73808,5.76315,4.48642,5.76315,4.48642C5.76315,4.48642,5.775,4.47358,5.775,4.47358C5.775,4.47358,5.08092,3.73333,5.08092,3.73333C5.08092,3.73333,1.61538,7.42467,1.61538,7.42467C1.61538,7.42467,2.30838,8.16258,2.30838,8.16258C2.30838,8.16258,5.07177,5.22142,5.07177,5.22142C5.07177,5.22142,8.04677,8.036,8.04677,8.036C8.04677,8.036,8.06023,8.02375,8.06023,8.02375C8.06023,8.02375,8.19108,8.16258,8.19108,8.16258C8.19108,8.16258,11.1402,5.02425,11.1402,5.02425C11.1402,5.02425,11.4402,6.21542,11.4402,6.21542C11.4402,6.21542,12.3846,5.94533,12.3846,5.94533C12.3846,5.94533,11.8768,3.92933,11.8768,3.92933C11.8768,3.92933,11.8795,3.92933,11.8795,3.92933C11.8795,3.92933,11.8795,3.92933,11.8795,3.92933Z" fill="#232324" fill-opacity="1"/></g></svg>