<svg xmlns="http://www.w3.org/2000/svg" xmlns:xlink="http://www.w3.org/1999/xlink" fill="none" version="1.1" width="14" height="14" viewBox="0 0 14 14"><g><path d="M9.99866,0C10.2748,0,10.4986,0.226524,10.4986,0.505955L10.4986,1.18056L11.3318,1.18056C12.4362,1.18056,13.3315,2.08666,13.3315,3.20438L13.3315,7.71211C14.3854,9.3172,14.175,11.4517,12.8285,12.8144C11.482,14.1771,9.37294,14.3901,7.78696,13.3235L1.99973,13.3235C0.89531,13.3235,0,12.4174,0,11.2997L0,3.20438C-1.52567e-7,2.08666,0.89531,1.18056,1.99973,1.18056L2.83295,1.18056L2.83295,0.505955C2.83295,0.226524,3.05678,0,3.33289,0C3.60899,0,3.83282,0.226524,3.83282,0.505955L3.83282,1.18056L9.49873,1.18056L9.49873,0.505955C9.49873,0.226524,9.72255,0,9.99866,0ZM9.99866,6.91472C8.34203,6.91472,6.99906,8.27387,6.99906,9.95046C6.99906,11.627,8.34203,12.9862,9.99866,12.9862C11.6553,12.9862,12.9983,11.627,12.9983,9.95046C12.9983,8.27387,11.6553,6.91472,9.99866,6.91472ZM2.83295,2.19247L1.99973,2.19247C1.44752,2.19247,0.999866,2.64552,0.999866,3.20438L0.999866,11.2997C0.999866,11.8585,1.44752,12.3116,1.99973,12.3116L6.74976,12.3116C5.60593,10.7012,5.7835,8.48927,7.16918,7.08689C8.55487,5.68451,10.7405,5.50481,12.3317,6.66242L12.3317,3.20438C12.3317,2.64552,11.884,2.19247,11.3318,2.19247L10.4986,2.19247L10.4986,3.20438C10.4986,3.48382,10.2748,3.71034,9.99866,3.71034C9.72255,3.71034,9.49872,3.48382,9.49872,3.20438L9.49872,2.19247L3.83282,2.19247L3.83282,3.20438C3.83282,3.48382,3.60899,3.71034,3.33289,3.71034C3.05678,3.71034,2.83295,3.48382,2.83295,3.20438L2.83295,2.19247ZM9.99866,8.09529C10.2748,8.09529,10.4986,8.32181,10.4986,8.60124L10.4986,9.74133L11.0185,10.2675C11.2021,10.4669,11.1967,10.7775,11.0063,10.9702C10.8159,11.1629,10.5089,11.1684,10.312,10.9826L9.64537,10.308C9.55159,10.2132,9.49884,10.0846,9.49873,9.95046L9.49873,8.60124C9.49873,8.32181,9.72255,8.09529,9.99866,8.09529Z" fill="#232324" fill-opacity="1"/></g></svg>