<svg xmlns="http://www.w3.org/2000/svg" xmlns:xlink="http://www.w3.org/1999/xlink" fill="none" version="1.1" width="14" height="14" viewBox="0 0 14 14"><g><g><path d="M13.4684,14C13.4684,14,1.1519,14,1.1519,14C0.531646,14,0,13.465,0,12.8408C0,12.8408,0,0.535032,0,0.535032C1.22968e-16,0.267516,0.265823,0,0.531646,0C0.797468,0,1.06329,0.267516,1.06329,0.535032C1.06329,0.535032,1.06329,12.9299,1.06329,12.9299C1.06329,12.9299,13.4684,13.0191,13.4684,13.0191C13.7342,13.0191,14,13.2866,14,13.5541C14,13.8217,13.7342,14,13.4684,14C13.4684,14,13.4684,14,13.4684,14Z" fill="#232324" fill-opacity="1"/></g><g><path d="M2.392362117767334,11.41413515625C2.392362117767334,11.41413515625,2.392362117767334,9.63069515625,2.392362117767334,9.63069515625C2.392362117767334,9.36318515625,2.658185117767334,9.09566515625,2.924008117767334,9.09566515625C3.189831117767334,9.09566515625,3.4556521177673343,9.36318515625,3.4556521177673343,9.63069515625C3.4556521177673343,9.63069515625,3.4556521177673343,11.41413515625,3.4556521177673343,11.41413515625C3.4556521177673343,11.68163515625,3.189831117767334,11.94913515625,2.924008117767334,11.94913515625C2.658185117767334,11.94913515625,2.392362117767334,11.77083515625,2.392362117767334,11.41413515625C2.392362117767334,11.41413515625,2.392362117767334,11.41413515625,2.392362117767334,11.41413515625ZM5.139202117767335,11.41413515625C5.139202117767335,11.41413515625,5.139202117767335,8.20394515625,5.139202117767335,8.20394515625C5.139202117767335,7.93643515625,5.405022117767334,7.66891515625,5.670842117767334,7.66891515625C5.936662117767334,7.66891515625,6.202492117767334,7.93643515625,6.202492117767334,8.20394515625C6.202492117767334,8.20394515625,6.202492117767334,11.41413515625,6.202492117767334,11.41413515625C6.202492117767334,11.68163515625,5.936662117767334,11.94913515625,5.670842117767334,11.94913515625C5.316412117767333,11.94913515625,5.139202117767335,11.77083515625,5.139202117767335,11.41413515625C5.139202117767335,11.41413515625,5.139202117767335,11.41413515625,5.139202117767335,11.41413515625ZM7.797422117767334,11.41413515625C7.797422117767334,11.41413515625,7.797422117767334,9.63069515625,7.797422117767334,9.63069515625C7.797422117767334,9.36318515625,8.063252117767334,9.09566515625,8.329072117767334,9.09566515625C8.594892117767333,9.09566515625,8.860722117767335,9.36318515625,8.860722117767335,9.63069515625C8.860722117767335,9.63069515625,8.860722117767335,11.41413515625,8.860722117767335,11.41413515625C8.860722117767335,11.68163515625,8.594892117767333,11.94913515625,8.329072117767334,11.94913515625C8.063252117767334,11.94913515625,7.797422117767334,11.77083515625,7.797422117767334,11.41413515625C7.797422117767334,11.41413515625,7.797422117767334,11.41413515625,7.797422117767334,11.41413515625ZM10.544262117767333,11.41413515625C10.544262117767333,11.41413515625,10.544262117767333,8.73898515625,10.544262117767333,8.73898515625C10.544262117767333,8.47146515625,10.810082117767333,8.20394515625,11.075912117767334,8.20394515625C11.341732117767334,8.20394515625,11.607552117767334,8.47146515625,11.607552117767334,8.73898515625C11.607552117767334,8.73898515625,11.607552117767334,11.41413515625,11.607552117767334,11.41413515625C11.607552117767334,11.68163515625,11.341732117767334,11.94913515625,11.075912117767334,11.94913515625C10.810082117767333,11.94913515625,10.544262117767333,11.77083515625,10.544262117767333,11.41413515625C10.544262117767333,11.41413515625,10.544262117767333,11.41413515625,10.544262117767333,11.41413515625ZM10.987302117767333,1.24853515625C10.987302117767333,1.24853515625,9.037932117767333,1.24853515625,9.037932117767333,1.24853515625C8.772112117767334,1.24853515625,8.506282117767334,1.51605115625,8.506282117767334,1.78356715625C8.506282117767334,2.05108315625,8.772112117767334,2.31859515625,9.037932117767333,2.31859515625C9.037932117767333,2.31859515625,9.835402117767334,2.31859515625,9.835402117767334,2.31859515625C9.835402117767334,2.31859515625,7.265782117767334,4.9045851562500005,7.265782117767334,4.9045851562500005C7.265782117767334,4.9045851562500005,6.2910921177673345,3.92369515625,6.2910921177673345,3.92369515625C6.113882117767334,3.65617515625,5.759452117767334,3.65617515625,5.4936321177673335,3.83452515625C5.4936321177673335,3.83452515625,2.569577117767334,6.86636515625,2.569577117767334,6.86636515625C2.392362157378034,7.04471515625,2.392362157378034,7.40140515625,2.569577117767334,7.57974515625C2.746792117767334,7.84726515625,3.1012231177673337,7.84726515625,3.278438117767334,7.57974515625C3.278438117767334,7.57974515625,5.848062117767334,4.99375515625,5.848062117767334,4.99375515625C5.848062117767334,4.99375515625,6.734132117767334,5.88547515625,6.734132117767334,5.88547515625C6.734132117767334,5.88547515625,6.822742117767334,5.97464515625,6.822742117767334,5.97464515625C6.822742117767334,5.97464515625,6.822742117767334,6.06382515625,6.822742117767334,6.06382515625C6.999962117767334,6.24216515625,7.354392117767334,6.24216515625,7.531602117767334,6.06382515625C7.531602117767334,6.06382515625,10.544262117767333,3.12114515625,10.544262117767333,3.12114515625C10.544262117767333,3.12114515625,10.544262117767333,3.92369515625,10.544262117767333,3.92369515625C10.544262117767333,4.19121515625,10.810082117767333,4.45872515625,11.075912117767334,4.45872515625C11.341732117767334,4.45872515625,11.607552117767334,4.19121515625,11.607552117767334,3.92369515625C11.607552117767334,3.92369515625,11.607552117767334,1.87273915625,11.607552117767334,1.87273915625C11.607552117767334,1.6052231562500001,11.341732117767334,1.24853515625,10.987302117767333,1.24853515625C10.987302117767333,1.24853515625,10.987302117767333,1.24853515625,10.987302117767333,1.24853515625Z" fill="#232324" fill-opacity="1"/></g></g></svg>