<svg xmlns="http://www.w3.org/2000/svg" xmlns:xlink="http://www.w3.org/1999/xlink" fill="none" version="1.1" width="14" height="14" viewBox="0 0 14 14"><g><path d="M12.4444,0L5.7037,0C5.41733,0,5.18518,0.232149,5.18518,0.518519C5.18518,0.804888,5.41733,1.03704,5.7037,1.03704L12.4444,1.03704C12.7307,1.03704,12.963,1.26985,12.963,1.55556L12.963,8.2963C12.963,8.58267,13.1951,8.81482,13.4815,8.81482C13.7679,8.81482,14,8.58267,14,8.2963L14,1.55556C14,0.697926,13.3021,0,12.4444,0ZM3.62963,2.07407L10.3704,2.07407C11.228,2.07407,11.9259,2.772,11.9259,3.62963L11.9259,10.3704C11.9259,10.6567,11.6938,10.8889,11.4074,10.8889C11.121,10.8889,10.8889,10.6567,10.8889,10.3704L10.8889,3.62963C10.8889,3.34393,10.6566,3.11111,10.3704,3.11111L3.62963,3.11111C3.34326,3.11111,3.11111,2.87896,3.11111,2.59259C3.11111,2.30622,3.34326,2.07407,3.62963,2.07407ZM8.2963,4.14815L1.55556,4.14815C0.697926,4.14815,0,4.84607,0,5.7037L0,12.4444C0,13.3021,0.697926,14,1.55556,14L8.2963,14C9.15393,14,9.85185,13.3021,9.85185,12.4444L9.85185,5.7037C9.85185,4.84607,9.15393,4.14815,8.2963,4.14815ZM8.81482,12.4444C8.81482,12.7308,8.58267,12.963,8.2963,12.963L1.55556,12.963C1.26985,12.963,1.03704,12.7307,1.03704,12.4444L1.03704,5.7037C1.03704,5.418,1.26985,5.18518,1.55556,5.18518L8.2963,5.18518C8.58252,5.18518,8.81482,5.418,8.81482,5.7037L8.81482,12.4444ZM2.59259,10.8889L7.25926,10.8889C7.54563,10.8889,7.77778,11.121,7.77778,11.4074C7.77778,11.6938,7.54563,11.9259,7.25926,11.9259L2.59259,11.9259C2.30622,11.9259,2.07407,11.6938,2.07407,11.4074C2.07407,11.121,2.30622,10.8889,2.59259,10.8889Z" fill-rule="evenodd" fill="#000000" fill-opacity="1"/></g></svg>