<svg xmlns="http://www.w3.org/2000/svg" xmlns:xlink="http://www.w3.org/1999/xlink" fill="none" version="1.1" width="14" height="14" viewBox="0 0 14 14"><g><path d="M13.2884,5.14845C13.4445,4.78897,13.283,4.36937,12.928,4.21177L3.74289,0.114829C3.04391,-0.196925,2.18335,0.151129,1.88479,0.856491L0.33228,4.52494C0.0281643,5.24747,0.358799,6.08306,1.0713,6.39262L5.31296,8.23468L4.44187,10.4412L1.40499,10.4412L1.40499,8.30586L0,8.30586L0,14L1.40499,14L1.40499,11.8647L4.44187,11.8647C5.02002,11.8647,5.53214,11.5131,5.7457,10.9693L6.60414,8.79555L10.2606,10.3828C10.6151,10.5369,11.0259,10.3726,11.1809,10.0148L11.4001,9.50945L12.595,9.99346L14,6.43462L12.921,5.9983L13.2884,5.14845ZM10.1735,8.79698L1.62487,5.0851L3.17597,1.41808L11.7197,5.22888L10.1735,8.79698Z" fill="#232324" fill-opacity="1"/></g></svg>