<svg xmlns="http://www.w3.org/2000/svg" xmlns:xlink="http://www.w3.org/1999/xlink" fill="none" version="1.1" width="14" height="14" viewBox="0 0 14 14"><g><path d="M0.875,0C0.875,0,13.125,0,13.125,0C13.6085,0,14,0.49,14,1.09375C14,1.09375,14,4.29042,14,4.29042C14,4.89475,13.608,5.38475,13.125,5.38475C13.125,5.38475,0.875,5.38475,0.875,5.38475C0.642935,5.38475,0.420376,5.26952,0.256282,5.0644C0.0921872,4.85928,0,4.58108,0,4.291C0,4.291,0,1.09375,0,1.09375C0,0.489417,0.392,0,0.875,0C0.875,0,0.875,0,0.875,0ZM2.18073,2.15367C2.0665,2.15367,1.95694,2.21039,1.87616,2.31137C1.79538,2.41234,1.75,2.54929,1.75,2.69208C1.75,2.83488,1.79538,2.97183,1.87616,3.0728C1.95694,3.17377,2.0665,3.2305,2.18073,3.2305C2.18073,3.2305,4.81927,3.2305,4.81927,3.2305C4.9335,3.2305,5.04306,3.17377,5.12384,3.0728C5.20462,2.97183,5.25,2.83488,5.25,2.69208C5.25,2.54929,5.20462,2.41234,5.12384,2.31137C5.04306,2.21039,4.9335,2.15367,4.81927,2.15367C4.81927,2.15367,2.18073,2.15367,2.18073,2.15367C2.18073,2.15367,2.18073,2.15367,2.18073,2.15367ZM0.875,8.61583C0.875,8.61583,13.125,8.61583,13.125,8.61583C13.6085,8.61583,14,9.10583,14,9.70958C14,9.70958,14,12.9068,14,12.9068C14,13.5106,13.608,14,13.125,14C13.125,14,0.875,14,0.875,14C0.642935,14,0.420376,13.8848,0.256282,13.6796C0.0921872,13.4745,0,13.1963,0,12.9062C0,12.9062,0,9.70958,0,9.70958C0,9.10525,0.392,8.61525,0.875,8.61525C0.875,8.61525,0.875,8.61583,0.875,8.61583C0.875,8.61583,0.875,8.61583,0.875,8.61583ZM2.18073,10.7701C2.0665,10.7701,1.95694,10.8268,1.87616,10.9278C1.79538,11.0288,1.75,11.1657,1.75,11.3085C1.75,11.4513,1.79538,11.5882,1.87616,11.6892C1.95694,11.7902,2.0665,11.8469,2.18073,11.8469C2.18073,11.8469,4.81927,11.8469,4.81927,11.8469C4.9335,11.8469,5.04306,11.7902,5.12384,11.6892C5.20462,11.5882,5.25,11.4513,5.25,11.3085C5.25,11.1657,5.20462,11.0288,5.12384,10.9278C5.04306,10.8268,4.9335,10.7701,4.81927,10.7701C4.81927,10.7701,2.18073,10.7701,2.18073,10.7701C2.18073,10.7701,2.18073,10.7701,2.18073,10.7701Z" fill="#232324" fill-opacity="1"/></g></svg>