<svg xmlns="http://www.w3.org/2000/svg" xmlns:xlink="http://www.w3.org/1999/xlink" fill="none" version="1.1" width="14.05859375" height="13.176513671875" viewBox="0 0 14.05859375 13.176513671875"><g><path d="M5.63167,1.06732C5.708,0.467167,6.30462,0,7.02926,0C7.75501,0,8.35233,0.468583,8.4272,1.07005C10.4638,1.58329,11.9498,3.18926,11.9498,5.09095C11.9498,7.0984,12.4537,8.42863,12.9299,9.24022C13.1689,9.64744,13.4035,9.9285,13.5702,10.1021C13.6536,10.1889,13.7202,10.2491,13.762,10.2848C13.783,10.3026,13.7978,10.3143,13.8053,10.3202L13.8109,10.3244C14.0343,10.4862,14.1165,10.7494,14.0166,10.9846C13.9158,11.2217,13.6516,11.3797,13.3556,11.3797L9.75235,11.3797C9.44023,12.413,8.33937,13.1765,7.02923,13.1765C5.71909,13.1765,4.61823,12.413,4.30611,11.3797L0.702961,11.3797C0.407016,11.3797,0.142768,11.2217,0.0420207,10.9846C-0.0587268,10.7476,0.0256077,10.4821,0.25296,10.3207C0.990171,9.79723,1.45697,8.9763,1.73757,8.00334C2.016,7.0379,2.092,5.9901,2.10881,5.08611C2.11042,3.45618,2.92399,2.37947,3.9826,1.73003C4.50979,1.40661,5.08568,1.19577,5.63167,1.06732ZM11.6725,9.77591C11.759,9.92329,11.8459,10.0584,11.9313,10.1819L2.21422,10.1819C2.63538,9.5979,2.9147,8.94144,3.10281,8.28919C3.41949,7.19112,3.49738,6.03542,3.51458,5.10034L3.51466,5.09095C3.51466,3.84872,4.10639,3.13014,4.80404,2.70214C5.53754,2.25215,6.43885,2.0963,7.02929,2.0963C8.97036,2.0963,10.5439,3.43706,10.5439,5.09095C10.5439,7.27602,11.0944,8.79071,11.6725,9.77591ZM7.02923,11.9787C6.50887,11.9787,6.05454,11.7378,5.81146,11.3797L8.247,11.3797C8.00392,11.7378,7.54959,11.9787,7.02923,11.9787Z" fill-rule="evenodd" fill="#232324" fill-opacity="1"/></g></svg>